<svg xmlns="http://www.w3.org/2000/svg" viewBox="0 0 512 512">
  <rect width="512" height="512" rx="96" fill="#c8b493"/>
  <g fill="#31363a" transform="translate(90, 153) scale(2.64) translate(-686, -288)">
    <path d="M686,353.5l10.7-12.3c5.4,5.4,12.4,8.2,19.4,8.2s11.6-3.2,11.6-7.5-3.6-7.1-13.1-7.1h-8.8c0,.1,0-15.6,0-15.6h8.8c7.5.1,11.5-2.4,11.5-6.7s-4.5-7.3-11.2-7.3-12.1,3.2-17,7.9l-10.4-11.3c6.4-7.5,15.6-13.3,29.4-13.3s28.2,8.7,28.2,20.5-5.4,14.7-13.8,17.1c8.3,2,15.4,7.8,15.4,17.4s-11.6,22.5-29.7,22.5-24.4-5.1-31-12.5Z"/>
    <path d="M753.6,353.5l10.7-12.3c5.4,5.4,12.4,8.2,19.4,8.2s11.6-3.2,11.6-7.5-3.6-7.1-13.1-7.1h-8.8c0,.1,0-15.6,0-15.6h8.8c7.5.1,11.5-2.4,11.5-6.7s-4.5-7.3-11.2-7.3-12.1,3.2-17,7.9l-10.4-11.3c6.4-7.5,15.6-13.3,29.4-13.3s28.2,8.7,28.2,20.5-5.4,14.7-13.8,17.1c8.3,2,15.4,7.8,15.4,17.4s-11.6,22.5-29.7,22.5-24.4-5.1-31-12.5Z"/>
  </g>
</svg>
